<svg width="128" height="128" viewBox="0 0 128 128" fill="none" xmlns="http://www.w3.org/2000/svg">
<path d="M19.8929 54.2807C19.8929 47.9126 25.0553 42.7503 31.4233 42.7503H102.9C109.268 42.7503 114.43 47.9127 114.43 54.2807V97.5562C114.43 103.924 109.268 109.087 102.9 109.087H31.4233C25.0552 109.087 19.8929 103.924 19.8929 97.5562V54.2807Z" fill="black"/>
<path d="M15.4916 46.0358C15.4916 41.7905 18.9331 38.3489 23.1785 38.3489H102.342C106.587 38.3489 110.029 41.7905 110.029 46.0358V96.9982C110.029 101.244 106.587 104.685 102.342 104.685H23.1785C18.9331 104.685 15.4916 101.244 15.4916 96.9982V46.0358Z" fill="white"/>
<path fill-rule="evenodd" clip-rule="evenodd" d="M23.1784 36.4272H102.342C107.649 36.4272 111.951 40.7291 111.951 46.0358V96.9982C111.951 102.305 107.649 106.607 102.342 106.607H23.1784C17.8717 106.607 13.5698 102.305 13.5698 96.9982V46.0358C13.5698 40.7291 17.8717 36.4272 23.1784 36.4272ZM23.1784 38.3489C18.9331 38.3489 15.4915 41.7905 15.4915 46.0358V96.9982C15.4915 101.244 18.9331 104.685 23.1784 104.685H102.342C106.587 104.685 110.029 101.244 110.029 96.9982V46.0358C110.029 41.7905 106.587 38.3489 102.342 38.3489H23.1784Z" fill="black"/>
<path d="M52.1465 43.8506C52.1465 42.1288 53.5423 40.733 55.2641 40.733H70.2562C71.978 40.733 73.3738 42.1288 73.3738 43.8506C73.3738 45.5725 71.978 46.9683 70.2562 46.9683H55.2641C53.5423 46.9683 52.1465 45.5725 52.1465 43.8506Z" fill="black"/>
<path fill-rule="evenodd" clip-rule="evenodd" d="M29.7882 55.4997H51.9022C55.0862 55.4997 57.6673 58.0809 57.6673 61.2649V90.6893C57.6673 93.8733 55.0862 96.4545 51.9022 96.4545H29.7882C26.6042 96.4545 24.0231 93.8733 24.0231 90.6893V61.2649C24.0231 58.0809 26.6042 55.4997 29.7882 55.4997ZM29.7882 57.4214C27.6656 57.4214 25.9448 59.1422 25.9448 61.2649V90.6893C25.9448 92.812 27.6656 94.5328 29.7882 94.5328H51.9022C54.0248 94.5328 55.7456 92.812 55.7456 90.6893V61.2649C55.7456 59.1422 54.0248 57.4214 51.9022 57.4214H29.7882Z" fill="black"/>
<path fill-rule="evenodd" clip-rule="evenodd" d="M33.8508 81.8967C34.3745 83.1173 35.4871 84.0154 36.9619 84.6299C38.5559 85.2941 40.4538 85.5712 42.1035 85.5712C43.7532 85.5712 45.6512 85.2941 47.2451 84.6299C48.72 84.0154 49.8325 83.1173 50.3562 81.8967C49.8192 80.7231 48.5086 79.806 46.8347 79.1622C45.0617 78.4803 43.1484 78.211 42.1035 78.211C41.0587 78.211 39.1454 78.4803 37.3724 79.1622C35.6985 79.806 34.3878 80.7231 33.8508 81.8967ZM36.6825 77.3685C38.6803 76.6002 40.8279 76.2893 42.1035 76.2893C43.3792 76.2893 45.5267 76.6002 47.5245 77.3685C49.4822 78.1215 51.5759 79.4239 52.297 81.5873C52.3628 81.7845 52.3628 81.9977 52.297 82.195C51.5966 84.2962 49.8682 85.6189 47.9843 86.4038C46.0975 87.19 43.9346 87.493 42.1035 87.493C40.2725 87.493 38.1096 87.19 36.2228 86.4038C34.3389 85.6189 32.6104 84.2962 31.91 82.195C31.8443 81.9977 31.8443 81.7845 31.91 81.5873C32.6311 79.4239 34.7249 78.1215 36.6825 77.3685Z" fill="black"/>
<path fill-rule="evenodd" clip-rule="evenodd" d="M38.5082 64.2495C38.1187 63.6565 37.4318 63.3243 36.7212 63.3916C35.9844 63.4612 35.3531 63.9478 35.0981 64.6425C34.4764 66.3362 34.6274 67.9377 35.64 69.1513C35.8769 69.4352 36.1415 69.6732 36.419 69.8725C36.2992 70.331 36.2353 70.812 36.2353 71.3072C36.2353 74.4353 38.7712 76.9712 41.8993 76.9712C44.99 76.9712 47.5025 74.4957 47.5623 71.4194C47.5915 71.124 47.6328 70.5283 47.5664 70.0211C47.3152 67.7918 46.2396 66.2404 44.6122 65.3897C43.136 64.6181 41.4375 64.5494 40.0965 64.6239C39.4208 64.6614 38.9935 64.5261 38.7579 64.4108C38.5994 64.3333 38.5256 64.2652 38.5082 64.2495ZM45.659 70.2563C45.2922 66.9094 42.6789 66.4051 40.2031 66.5426C39.5715 66.5777 39.035 66.5112 38.5882 66.3893C37.6341 66.1292 37.0895 65.617 36.9021 65.3047C36.4714 66.4781 36.6326 67.3002 37.0703 67.864C37.1266 67.9364 37.1874 68.0046 37.2521 68.0687C37.7249 68.5372 38.4058 68.7887 39.0337 68.9002C38.6129 69.4006 38.3208 70.0129 38.2084 70.6859C38.1746 70.888 38.157 71.0955 38.157 71.3072C38.157 73.374 39.8325 75.0495 41.8993 75.0495C43.9661 75.0495 45.6416 73.374 45.6416 71.3072C45.6667 71.0924 45.7053 70.5814 45.659 70.2563Z" fill="black"/>
<path fill-rule="evenodd" clip-rule="evenodd" d="M42.9558 81.3514C42.9558 80.8207 43.386 80.3905 43.9167 80.3905H46.6675C47.1982 80.3905 47.6284 80.8207 47.6284 81.3514C47.6284 81.8821 47.1982 82.3123 46.6675 82.3123H43.9167C43.386 82.3123 42.9558 81.8821 42.9558 81.3514Z" fill="black"/>
<path fill-rule="evenodd" clip-rule="evenodd" d="M63.2668 85.1951C63.2668 84.6644 63.697 84.2342 64.2277 84.2342H83.8487C84.3794 84.2342 84.8096 84.6644 84.8096 85.1951C84.8096 85.7258 84.3794 86.1559 83.8487 86.1559H64.2277C63.697 86.1559 63.2668 85.7258 63.2668 85.1951Z" fill="black"/>
<path fill-rule="evenodd" clip-rule="evenodd" d="M63.2668 79.3367C63.2668 78.806 63.697 78.3758 64.2277 78.3758H100.172C100.703 78.3758 101.133 78.806 101.133 79.3367C101.133 79.8674 100.703 80.2976 100.172 80.2976H64.2277C63.697 80.2976 63.2668 79.8674 63.2668 79.3367Z" fill="black"/>
<path fill-rule="evenodd" clip-rule="evenodd" d="M63.2668 73.4682C63.2668 72.9375 63.697 72.5073 64.2277 72.5073H100.172C100.703 72.5073 101.133 72.9375 101.133 73.4682C101.133 73.9988 100.703 74.429 100.172 74.429H64.2277C63.697 74.429 63.2668 73.9988 63.2668 73.4682Z" fill="black"/>
<path fill-rule="evenodd" clip-rule="evenodd" d="M63.2665 67.5997C63.2665 67.069 63.6967 66.6388 64.2273 66.6388H100.172C100.702 66.6388 101.133 67.069 101.133 67.5997C101.133 68.1304 100.702 68.5606 100.172 68.5606H64.2273C63.6967 68.5606 63.2665 68.1304 63.2665 67.5997Z" fill="black"/>
<path d="M63.4479 58.7511C63.4479 57.6117 64.3716 56.688 65.5111 56.688H99.2548C100.394 56.688 101.318 57.6117 101.318 58.7511C101.318 59.8906 100.394 60.8143 99.2548 60.8143H65.5111C64.3716 60.8143 63.4479 59.8906 63.4479 58.7511Z" fill="black"/>
<path d="M57.5795 22.757C57.5795 21.6956 58.4399 20.8353 59.5012 20.8353H66.0193C67.0806 20.8353 67.941 21.6956 67.941 22.757V43.5756H57.5795V22.757Z" fill="white"/>
<path fill-rule="evenodd" clip-rule="evenodd" d="M69.8627 45.4973H55.6577V22.757C55.6577 20.6343 57.3785 18.9135 59.5012 18.9135H66.0192C68.1419 18.9135 69.8627 20.6343 69.8627 22.757V45.4973ZM59.5012 20.8353C58.4398 20.8353 57.5794 21.6956 57.5794 22.757V43.5756H67.941V22.757C67.941 21.6956 67.0806 20.8353 66.0192 20.8353H59.5012Z" fill="black"/>
<path d="M65.4194 25.9702C65.4194 27.4388 64.2288 28.6294 62.7602 28.6294C61.2916 28.6294 60.1011 27.4388 60.1011 25.9702C60.1011 24.5016 61.2916 23.3111 62.7602 23.3111C64.2288 23.3111 65.4194 24.5016 65.4194 25.9702Z" fill="black"/>
</svg>
